<svg class="hide">
    <g id="icon_1">
        <path id="_001" data-name="001" d="M7.29248,11.67946v1.98645H6v.918H7.29248V21H8.90765V14.584h1.93854v-.918H8.90765L8.92432,11.759c0-1.06234.398-1.61077,1.22985-1.61077a2.58837,2.58837,0,0,1,.99531.20566l.32562-1.07968A4.1787,4.1787,0,0,0,10.00946,9,2.44663,2.44663,0,0,0,7.29248,11.67946ZM14.5,10.40625H16V9H13V24h3V22.59375H14.5ZM24,9v1.40625h1.5v12.1875H24V24h3V9Zm-3.08447,8.01937L24,13H22.33344s-2.16694,3.11366-2.202,3.1715H20.057C20.013,16.11155,17.66656,13,17.66656,13H16l3.03033,3.87543L16,21h1.33319s2.55188-3.36051,2.4809-3.26058h.07476L22.33344,21H24Z" />
    </g>
    <g id="icon_2">
        <path id="_002" data-name="002" d="M10.5,16.5h2v10h-2Zm5,10h2v-7h-2Zm-10,0h2v-7h-2Zm15,0h2v-12h-2Zm5,0,1.99841-.002L27.5,12.5h-2Zm.18188-18.45752A.98267.98267,0,0,0,26.5,8.5a1,1,0,1,0-1-1,.94975.94975,0,0,0,.03448.171L22.31812,8.95752A.98267.98267,0,0,0,21.5,8.5a1,1,0,0,0-1,1,.97381.97381,0,0,0,.18689.54993l-3.647,3.63018A.97288.97288,0,0,0,16.5,13.5a.9886.9886,0,0,0-.73077.32806L12.434,11.827A.98164.98164,0,0,0,12.5,11.5a1,1,0,0,0-2,0,.98168.98168,0,0,0,.066.327L7.2309,13.82825A.9888.9888,0,0,0,6.5,13.5a1,1,0,1,0,1,1,.98273.98273,0,0,0-.066-.32715l3.33521-2.001a.978.978,0,0,0,1.46166,0L15.566,14.173a.98164.98164,0,0,0-.066.327,1,1,0,0,0,2,0,.97244.97244,0,0,0-.179-.53827l3.64081-3.64081A.97231.97231,0,0,0,21.5,10.5a1,1,0,0,0,1-1,.9491.9491,0,0,0-.03448-.1709Z" />
    </g>
    <g id="icon_3">
        <path id="_003" data-name="003" d="M6.55926,18.78162l-2.17507.56689-.4199-.66557L6.173,18.27281Zm.739.65178-.28973-.26072-2.33884.62388.3905.609,1.32269-.47783Zm.8188.52527-.34852-.24317-1.12113.63856-1.31428.4691.46189.67854,1.31428-.68256Zm.8314,1.2571-.20155-.32627-.39051-.44782-.98256.86042L6.068,21.93236l.52067.83524,1.34788-.66085Zm.97417,1.94508L9.255,21.73348l-.949.77321-1.46544.7134.60045,1.03109,1.42766-.526Zm.22674.47432-.85659.48549-1.58722.57427.676,1.1529,2.66636-.825Zm.05039,2.20855-1.59142.39567.96577,1.57916,2.9057-.72536L11.37551,25.449Zm1.71739-.57892,1.04974,1.70967,2.1558-.60883-1.085-1.96819ZM8.83462,17.94715l-.26294-.20759-1.73108.37721.361.4658ZM7.78978,19.12683l.69194-.54715-.941.37542Zm1.7091-1.576-.2491.05081.07266.07521Zm-.98256,2.00509.64351-.906.55356-.913-.62275.84132-.89954.80606Zm.92029,1.13935,1.02408-1.45243L11.637,16.84246l-.49821-.968L9.92266,18.33234,8.89,19.85658Zm1.68144-1.362L9.83794,21.13943l.73346,1.52024,1.02409-.81351,1.121-1.251L11.9,17.671Zm2.68476,4.56819-.858-2.51781-.74039.9062-1.32854.965.80958,1.56314Zm.9618.19883,1.1348,2.07928,2.27792-.55628-1.24-2.53294Zm-.24218-.57375L16.59828,22.524l-.47053-1.84388-.48436-2.36072-.87878,1.01419-1.11745,1.44546.45318,1.62138Zm-.083-5.08956,1.01024-1.115L14.82,13.533l-.30446-1.29149-1.1002,2.14176-1.04484,2.3211.98257,3.09182ZM13.42915,12.7537l.89262-1.58853-.3183-.92534-.173-.26522-1.30778,2.5227L11.42942,15.12l.55356.90327Zm1.4185-2.38656.4982-.43185.69887-.28873.72654.12757.29062.10344-.519-.69876L16.348,8.97707a1.15079,1.15079,0,0,0-.486-.30055l-.0342-.01062a1.12279,1.12279,0,0,0-.24948-.04747h0a1.12833,1.12833,0,0,0-.63371.14055l-.03488.01943a1.17047,1.17047,0,0,0-.28477.223l-.37245.398.30792.31876Zm2.48012,11.89735,1.04656-.31557,1.0063-.12059-.56353-2.11459-.46961-2.3236-.75808-.19317-.55011.09868-.71783.43315.50986,2.56712Zm-.95263-11.85781-.3824.05655-.3891.27232-.44277.53693,1.013,5.56577.644-.33554.66416-.12679.74467.13056-.57024-3.72931-.40923-1.87133-.43271-.44795Zm3.22017,12.03365-.95263.07871-1.08681.39919.49644,1.29345.70488,1.27444,2.18648-.51727-.711-1.131Zm.44277-4.85217.65746.59708-.66416-2.03084-.66752-1.59235-.6541-1.30006-.67757-1.1608.85871,4.65435ZM20.02467,21.813l.87213-.002s1.02643.05336,1.04655.04636-.97947-2.68438-.97947-2.68438L19.924,18.187l-.87213-.61747.43606,2.15663Zm2.20716.62142-1.06-.08113-.91909.00208.644,1.4184.66117,1.0498,2.03379-.42607L22.75511,23.331ZM22.366,19.657l.43607.19389-.63062-.966-1.21428-1.34751.39582,1.27976Zm.18114,2.25465,1.71742-.00388-.95934-1.30633-1.22769-.63059-.39582-.2598.483,1.33842Zm.99288.56152-.70441-.04017.63732.90337.79163.987,1.88647-.48079-1.4437-1.41376Zm-2.21387-5.28465-.208-.20137.08722.20164Zm1.01972.7285-.33543-.25676-.40252-.03389.42936.29135Zm.92581,1.00712.48973.04065-.59037-.458-.85871-.08158Zm-.29854.34868.60713.91736.98618.13.65745-.06413-.86542-.71493-1.05326-.0881Zm1.0432,1.45926.899,1.11914,1.80464-.27613L25.72035,20.77l-1.01972.03552Zm3.247,1.28027-1.93211.33149L26.6864,23.698l2.03944-.49181ZM30,10.20089l-1.05,13.0499a.1298.1298,0,0,1-.09657.11832L9.56775,27.931l-.02178.00517L9.50384,27.93,9.48632,28l.00048-.07606-.0213-.01127L3.836,18.67576a.14252.14252,0,0,1-.01941-.062L3,7.03632l.00142-.03146H3.001l.008-.02723a.17867.17867,0,0,1,.0161-.03146l.02982-.02911L19.97275,5.00188,19.98033,5l9.95908,5.0929.0426.04461v.00094l.00663-.00188.00284.02066v-.00047ZM19.95287,11.61838,29.4575,10.138,20.2085,5.3944l-.1032-.05306L19.95477,11.532ZM3.391,7.12975l5.62807,6.15919.02651.02911,10.59862-1.65131.05965-.00939.15432-6.29347.0019-.08264L3.53208,7.11379ZM9.39638,27.32718,8.88086,13.5406l-.00142-.02629L3.27267,7.37907l.78724,11.16382,5.19067,8.5453ZM29.73964,10.36147l-9.73375,1.51609-.05965.00939L19.862,15.33183l-.23385-.56061.06911-2.8453L9.1933,13.5622l-.06391.00986.52309,13.97955.00284.0878,19.005-4.49614.05113-.01174,1.02156-12.679Z" />
    </g>
    <g id="icon_4">
        <path id="_004" data-name="004" d="M29.75952,11.59884a1.016,1.016,0,0,0-1.02485-1.004,1.06092,1.06092,0,0,0-.27068.03182L26.98255,9.13463a1.00879,1.00879,0,0,0,.16644-.55088.95683.95683,0,0,0-.0163-.1567l-.1143-.334-.01195-.02515a1.03379,1.03379,0,0,0-.88242-.48812,1.016,1.016,0,0,0-.913.545l-1.59492.03866a1.75353,1.75353,0,0,0-2.05846-.98886l-.22854-.4229a1.01623,1.01623,0,0,0,.33683-.747,1.06414,1.06414,0,0,0-.00842-.16056l-.12377-.33329-.00918-.0193A1.02716,1.02716,0,0,0,20.6413,5a1.01618,1.01618,0,0,0-1.02515,1.00466.95182.95182,0,0,0,.16821.54936l.24566.25789.02066.01755a1.05548,1.05548,0,0,0,.59062.17927c.03825,0,.0741-.00175.10747-.005l.2313.45209a1.629,1.629,0,0,0-.36132.36078L17.75438,6.4702a.95621.95621,0,0,0,.01089-.1515,1.025,1.025,0,0,0-2.04975,0c0,.01585,0,.0327.00076.05036l-2.73759.97039a1.03736,1.03736,0,0,0-1.71623.11125l-1.06669-.097-.11618-.31334-.00924-.01995a1.02711,1.02711,0,0,0-.88324-.49151A1.01615,1.01615,0,0,0,8.162,7.53364a.98007.98007,0,0,0,.16856.5569l.24648.252.02113.0176a1.02042,1.02042,0,0,0,.94075.11962l.30946-.17255.0206-.01492a.99774.99774,0,0,0,.25272-.33l1.0189.11979a1.0112,1.0112,0,0,0,.10318.32153l-2.09484,1.986a1.74025,1.74025,0,0,0-1.01213-.32393,1.70635,1.70635,0,0,0-1.7247,1.68287,1.68392,1.68392,0,0,0,.15691.70507L4.75124,13.78579a.91435.91435,0,0,0-.09635-.08212L5.7343,10.04131a.97075.97075,0,0,0,.14255.01094,1.182,1.182,0,0,0,.34389-.0551l.31894-.18355.02171-.01579a1.01647,1.01647,0,0,0,.34042-.7494.928.928,0,0,0-.00953-.16325l-.12271-.33744L6.7585,8.525a1.03339,1.03339,0,0,0-.88165-.48811A1.01957,1.01957,0,0,0,4.85194,9.04841a.96514.96514,0,0,0,.168.54924l.17316.1784L4.0624,13.49538H4.032A1.0193,1.0193,0,0,0,3,14.5a1.006,1.006,0,0,0,.16556.545l.25708.26374.01877.01509a1.03457,1.03457,0,0,0,.59056.18.98334.98334,0,0,0,.34477-.05767l.31129-.18174.01713-.0117A.97319.97319,0,0,0,5.05693,14.5a.93831.93831,0,0,0-.01388-.1457l-.00165-.015,1.86818-1.40509a1.60165,1.60165,0,0,0,.49133.345l-.89084,3.2101a1.00812,1.00812,0,1,0,.61345,1.83624l2.73436,2.12683a1.64329,1.64329,0,0,0-.20823.80626,1.72111,1.72111,0,0,0,3.44168,0,1.854,1.854,0,0,0-.0366-.36008l1.7254-.69407a1.03581,1.03581,0,0,0,.79366.36505,1.11573,1.11573,0,0,0,.18263-.01345l1.38593,1.74756a.99957.99957,0,0,0-.22365.6271,1.051,1.051,0,0,0,.16391.55011l.25161.25871.02065.01673a1.01865,1.01865,0,0,0,.94134.11985l.08516-.04626,2.65432,2.62921a.98806.98806,0,0,0-.15827.53678.9515.9515,0,0,0,.169.54907l.24489.25812.0206.01755A1.05594,1.05594,0,0,0,21.90257,28a1.17605,1.17605,0,0,0,.34395-.05527l.32-.18355.0206-.01585a1.01292,1.01292,0,0,0,.34036-.74935,1.03388,1.03388,0,0,0-.00871-.16085l-.12348-.33305-.01059-.02194a1.03246,1.03246,0,0,0-.88212-.48887,1.05459,1.05459,0,0,0-.41146.07949L18.84827,23.413a1.01775,1.01775,0,0,0,.09988-.25614l5.66706-.74764a1.03219,1.03219,0,0,0,1.91409-.50731,1.01224,1.01224,0,0,0-.48885-.856l.76894-2.81229c.05056.00415.10071.00666.15362.00666a1.70549,1.70549,0,0,0,1.71681-1.68977,1.68757,1.68757,0,0,0-.87454-1.47517l.8859-2.47275c.01547.001.02989.001.04349.001A1.01633,1.01633,0,0,0,29.75952,11.59884ZM9.18711,7.99427a.4568.4568,0,1,1,0-.91353.4568.4568,0,1,1,0,.91353Zm-3.31026.59351a.45683.45683,0,1,1-.46249.46063A.46208.46208,0,0,1,5.87685,8.58778ZM4.032,14.953a.45343.45343,0,1,1,.46231-.453A.4621.4621,0,0,1,4.032,14.953Zm17.8706,11.59a.45309.45309,0,1,1-.46243.453A.45238.45238,0,0,1,21.90257,26.543ZM26.124,8.13079a.453.453,0,1,1-.46248.453A.45321.45321,0,0,1,26.124,8.13079Zm-2.38011.67482V8.78537l1.36827-.02416a.95126.95126,0,0,0,.15444.3785l.24807.25357.01878.01515a1.06722,1.06722,0,0,0,.93962.12207l.03073-.015,1.34,1.3924-4.1476-1.72569A1.60189,1.60189,0,0,0,23.74391,8.80561Zm-.27979.91511,4.25047,1.77184c-.00218.02415-.00383.04925-.00489.07428l-4.70889,1.25694a1.0086,1.0086,0,0,0-.601-.43448L22.354,10.46087A1.76355,1.76355,0,0,0,23.46412,9.72072ZM17.79752,13.167a1.00451,1.00451,0,1,0,0,2.00861,1.32624,1.32624,0,0,0,.17074-.01064l.554,1.08584a1.66215,1.66215,0,0,0-.612.83153l-5.63751-.79216a.99309.99309,0,0,0-.18322-.44121l1.76919-2.28668a1.76142,1.76142,0,0,0,.78925.18413A1.7226,1.7226,0,0,0,16.2667,12.6345l4.84308.8424a.97973.97973,0,0,0,.2592.5576l-1.20971,1.992a1.77408,1.77408,0,0,0-1.10206-.03861l-.55372-1.086a1.00357,1.00357,0,0,0,.31929-.731A1.01613,1.01613,0,0,0,17.79752,13.167Zm.46255,1.00395a.46261.46261,0,1,1-.46255-.453A.45247.45247,0,0,1,18.26007,14.171Zm3.62031.165a1.02411,1.02411,0,0,0,.90107-.19846l2.6027,1.72744a1.66525,1.66525,0,0,0-.14578.63382l-4.05455.58364a1.7101,1.7101,0,0,0-.51374-.75455Zm.248-1.43253a.45846.45846,0,0,1,.46278.453.46273.46273,0,0,1-.92526,0A.45858.45858,0,0,1,22.12839,12.90338ZM20.6413,6.45756a.453.453,0,1,1,.46248-.4529A.4529.4529,0,0,1,20.6413,6.45756Zm-.27933,1.885a1.65924,1.65924,0,0,0-.06727.46308,1.69388,1.69388,0,0,0,1.46785,1.66872l.04585,1.92825-.03314.01164L17.71071,7.09653Zm.94239,4.42006a1.17008,1.17008,0,0,0-.08716.139l-4.84492-.83649V12.0635a1.68619,1.68619,0,0,0-.8737-1.47441L16.6874,7.321c.01683.0017.03507.00258.053.00258a1.03209,1.03209,0,0,0,.3523-.06452Zm-4.564-6.90352a.45631.45631,0,1,1-.46249.45963A.46144.46144,0,0,1,16.74037,5.85907ZM13.18686,7.94051a.48827.48827,0,0,0-.00271-.05171l2.73542-.96886a1.086,1.086,0,0,0,.20817.20513L14.93621,10.3963a1.7931,1.7931,0,0,0-.89872.08715l-1.124-1.85712A.9883.9883,0,0,0,13.18686,7.94051Zm-1.0325-.45284a.45677.45677,0,1,1,0,.91347.45677.45677,0,1,1,0-.91347Zm-.49992,1.33209a1.00854,1.00854,0,0,0,.74829.10055l1.124,1.85706a1.70046,1.70046,0,0,0-.55836.91271l-3.12334-.14745a1.60755,1.60755,0,0,0-.28409-.73747ZM9.81762,12.123l3.12252.14647a1.666,1.666,0,0,0,.44459.94026l-1.768,2.28663a1.03856,1.03856,0,0,0-.35943-.06429,1.00833,1.00833,0,0,0-.28986.04522L9.31147,12.987A1.63887,1.63887,0,0,0,9.81762,12.123Zm1.90244,4.32046a.46263.46263,0,1,1-.46278-.46057A.45868.45868,0,0,1,11.72006,16.44344ZM6.53968,17.954a.45683.45683,0,1,1,.46278-.453A.45826.45826,0,0,1,6.53968,17.954Zm6.28869,2.40391a1.7494,1.7494,0,0,0-2.59917-.35844L7.75863,18.07712l6.78508,1.55214.00353.037Zm1.85294-1.2946L7.56241,17.429a.99472.99472,0,0,0-.47879-.78368L7.976,13.43168a1.70627,1.70627,0,0,0,.83822-.12722L10.4748,15.7919a.98218.98218,0,0,0-.24236.65154,1.01609,1.01609,0,0,0,1.02484,1.004,1.03731,1.03731,0,0,0,.93374-.5803l5.63228.792a1.6818,1.6818,0,0,0,.07251.43541l-1.58215.77865a1.03917,1.03917,0,0,0-1.63235.1901Zm.89248.95529a.45344.45344,0,1,1,.46249-.45273A.46194.46194,0,0,1,15.57379,20.01859Zm2.36975,3.36528a.45374.45374,0,1,1,.46961-.453A.45855.45855,0,0,1,17.94354,23.38387Zm6.53024-1.53571-5.593.70255-.0445-.11471-.00924-.01918a1.0321,1.0321,0,0,0-1.20436-.43805l-1.315-1.71136c.02142-.02164.04179-.04439.06133-.06791l4.03747.94465a.94349.94349,0,0,0,.16556.47882l.2459.25789.01954.01673a1.05632,1.05632,0,0,0,.59144.18009.98343.98343,0,0,0,.35148-.05855l.31241-.18091.02036-.01591a1.00358,1.00358,0,0,0,.34713-.7494,1.03469,1.03469,0,0,0-.01248-.14331l-.12648-.35078-.00924-.0193a1.03835,1.03835,0,0,0-1.7759.01773l-3.94-.9505c.00165-.02076.00247-.04094.00247-.06089a.89072.89072,0,0,0-.01713-.17507l1.58215-.77882a1.72527,1.72527,0,0,0,1.38428.68588,1.75522,1.75522,0,0,0,1.18635-.46741L24.53,21.56512A.973.973,0,0,0,24.47378,21.84816Zm-3.5076-.77525a.46273.46273,0,1,1,.46278.453A.45274.45274,0,0,1,20.96618,21.07291Zm4.53062,1.28191a.45813.45813,0,0,1-.46219-.45291.46247.46247,0,0,1,.92474,0A.45829.45829,0,0,1,25.4968,22.35482Zm-.03072-1.46453a1.03808,1.03808,0,0,0-.57837.2018l-3.79588-2.73456a1.64808,1.64808,0,0,0,.18-.69915l4.0529-.58182a1.6797,1.6797,0,0,0,.90955,1.0046Zm1.77761-6.00765a1.75525,1.75525,0,0,0-1.52565.49583l-2.60541-1.72253a.99983.99983,0,0,0,.03985-.26795l4.71084-1.2567a1.01131,1.01131,0,0,0,.26437.27708Zm1.491-2.831a.453.453,0,1,1,.46243-.45284A.45252.45252,0,0,1,28.73467,12.05168Zm1.25968,2.24493-.00194-.01088v-.0234l-.07351-.19273-.009-.01925a.60486.60486,0,0,0-1.12154.3065.65337.65337,0,0,0,.08875.31732l.00953.016.14408.14149.01713.0141a.60872.60872,0,0,0,.34313.10148.69862.69862,0,0,0,.19539-.02679l.19028-.10552.02143-.016A.60869.60869,0,0,0,30,14.35685.43553.43553,0,0,0,29.99435,14.29661ZM28.309,19.17379l-.01307-.026a.62467.62467,0,0,0-.51622-.287.597.597,0,0,0-.60962.59691.55162.55162,0,0,0,.1037.32229l.13572.14319.01248.01181a.57684.57684,0,0,0,.35772.113.56664.56664,0,0,0,.21064-.03837l.16556-.09218.01978-.01352a.57986.57986,0,0,0,.20582-.44617.4.4,0,0,0-.01119-.1088ZM22.231,23.11937a.60344.60344,0,0,0-.609.59691.58786.58786,0,0,0,.09959.32475l.13931.14757.02436.01995a.6551.6551,0,0,0,.34578.098.68655.68655,0,0,0,.19546-.02679l.01707-.00421.168-.10213.0163-.01164a.57934.57934,0,0,0,.20464-.44547v-.09382l-.07327-.19355L22.75,23.41072A.60243.60243,0,0,0,22.231,23.11937Zm-6.49951-2.131-.01-.02182a.60922.60922,0,0,0-1.12831.30644.59149.59149,0,0,0,.09981.32492l.14167.14231.01554.0134a.60319.60319,0,0,0,.35148.10973.51692.51692,0,0,0,.21088-.03948l.16638-.092.01954-.01345a.57934.57934,0,0,0,.20576-.44542.40359.40359,0,0,0-.01112-.10885ZM9.25609,16.13618v-.02427L9.182,15.926l-.00865-.01767a.60267.60267,0,0,0-.5187-.29135.59654.59654,0,0,0-.60179.59031.61252.61252,0,0,0,.09046.32141l.15108.15342.01012.00919a.56414.56414,0,0,0,.35013.113.519.519,0,0,0,.21059-.03854l.17509-.10049.02225-.01591a.59345.59345,0,0,0,.2014-.44208.27181.27181,0,0,0-.00518-.05019Zm6.556-1.32806L15.799,14.783a.62283.62283,0,0,0-.517-.2872.59621.59621,0,0,0-.60857.59691.58863.58863,0,0,0,.09994.32492l.14167.14243.01518.01252a.60014.60014,0,0,0,.35178.11061.54288.54288,0,0,0,.21058-.03943l.16674-.09224.01954-.01333a.58.58,0,0,0,.2057-.44548.40553.40553,0,0,0-.01112-.10956Zm1.57938-3.73021.01795.015a.59556.59556,0,0,0,.35172.10979.523.523,0,0,0,.2107-.03843l.17151-.09131.02548-.0176a.60741.60741,0,0,0,.20146-.44963.345.345,0,0,0-.00441-.04943.09127.09127,0,0,1-.00241-.02181v-.02428l-.07516-.18571-.00842-.0179a.60381.60381,0,0,0-.51875-.29123.597.597,0,0,0-.60173.59036.61209.61209,0,0,0,.09122.32235Zm-4.295-4.59414.02466.01994a.6502.6502,0,0,0,.34549.10482.70864.70864,0,0,0,.19551-.03281l.017-.005.16833-.102.016-.01181a.57.57,0,0,0,.20493-.44548V5.9168l-.07433-.18664L13.98729,5.715a.58535.58535,0,0,0-.52063-.293.6.6,0,0,0-.609.58942.57222.57222,0,0,0,.10317.33ZM3.22206,11.25561l.14573.13482.00871.00667a.61085.61085,0,0,0,.56754.0744l.16638-.09213.02307-.01672a.60812.60812,0,0,0,.20141-.44209.39761.39761,0,0,0-.01136-.10967l-.06145-.175L4.24938,10.61a.62092.62092,0,0,0-.52411-.2872.59987.59987,0,0,0-.6015.59779.65015.65015,0,0,0,.08876.31732Z" />
    </g>
    <g id="icon_5">
        <path id="_005" data-name="005" d="M8.00367,13s-1.53834,3.10748-1.56589,3.16528H6.3789C6.34423,16.10541,4.76609,13,4.76609,13H3.29432l2.27552,3.86908L3,21H4.47171S6.15,17.801,6.18778,17.73279h.05883C6.28676,17.8006,8.00367,21,8.00367,21H9.47516L7.056,17.01306,9.47516,13Zm2.94309,1.15747c1.07165-1.23163,1.96488-2.3056,1.96488-3.35187A1.65139,1.65139,0,0,0,11.20173,9a2.15217,2.15217,0,0,0-1.72657.90747l.54432.59253a1.47192,1.47192,0,0,1,1.05477-.65747c.57842,0,.89312.39825.89312,1.01855,0,.89814-.94422,1.93525-2.44992,3.51862V15h3.6578v-.90735h-1.3269C11.58469,14.09265,11.22736,14.1297,10.94676,14.15747ZM18,13H17v3H14v1h3v3h1V17h3V16H18Zm10.40235,0s-1.93059,6.05377-2.06647,6.49005h-.063c.20892.61231-2.34278-6.49-2.34278-6.49H22.333l3.36508,7.75409-.17563.56171c-.3194.93634-.87841,1.623-1.75663,1.623a2.33294,2.33294,0,0,1-.59081-.10925l-.25556,1.01434A2.62994,2.62994,0,0,0,23.8297,24c1.565,0,2.36346-1.13922,2.90644-2.63733L30,13Z" />
    </g>
    <g id="icon_6">
        <path id="_006" data-name="006" d="M24.67786,15.24118c0,1.73547.83014,2.72009,2.11322,2.72009a2.28807,2.28807,0,0,0,1.54486-.73864h.032l.07343.61041h.71459v-7.6258h-.87237v2.00232l.04224.88965a2.08473,2.08473,0,0,0-1.42951-.6001C25.7287,12.49911,24.67786,13.54916,24.67786,15.24118Zm3.60571-1.45648V16.505a1.721,1.721,0,0,1-1.30322.71766c-.8938,0-1.40912-.75007-1.40912-1.99195,0-1.18951.65228-1.9928,1.47143-1.9928A1.76071,1.76071,0,0,1,28.28357,13.7847ZM20.01886,23.816a3.372,3.372,0,0,0-1.80615.60718l.3125.549a2.43662,2.43662,0,0,1,1.37042-.50116c.7467,0,.94537.57794.94537,1.17511-1.957.222-2.827.73254-2.827,1.7539a1.26409,1.26409,0,0,0,1.3529,1.329,2.479,2.479,0,0,0,1.52191-.67382h.01838l.06628.55841h.643v-2.8711C21.61652,24.57687,21.14368,23.816,20.01886,23.816Zm.82214,3.65155a1.87038,1.87038,0,0,1-1.25689.6261.71013.71013,0,0,1-.804-.75165c0-.59766.52057-.98285,2.06091-1.17517ZM23.49158,11.613a3.36872,3.36872,0,0,0,2.233-.90613l-.52332-.77844a2.42315,2.42315,0,0,1-1.61078.70556c-1.25726,0-2.1192-1.07947-2.1192-2.67737,0-1.613.90442-2.70666,2.14807-2.70666a2.05488,2.05488,0,0,1,1.384.61908l.57977-.76325A2.80979,2.80979,0,0,0,23.57684,4.271a3.36224,3.36224,0,0,0-3.3067,3.68566C20.27014,10.27432,21.66937,11.613,23.49158,11.613ZM20.88165,13.2673a2.74833,2.74833,0,0,0-1.70862.76343h-.03332l-.07715-.629h-.74914v7.76h.9035V19.32028l-.02136-.95465a2.45859,2.45859,0,0,0,1.48779.62817c1.22308,0,2.31433-1.08905,2.31433-2.94146C22.99768,14.35629,22.259,13.2673,20.88165,13.2673Zm-.35278,4.95215a2.10315,2.10315,0,0,1-1.312-.57263V14.78317a2.24209,2.24209,0,0,1,1.43317-.74145c1.014,0,1.41046.80908,1.41046,2.01062C22.06055,17.39908,21.4101,18.21945,20.52887,18.21945Zm-6.3891,5.26367H12.76019c-.96771,0-1.26147-.32855-1.26147-.79235a1.1052,1.1052,0,0,1,.455-.86658,2.567,2.567,0,0,0,3.68151-2.27258,2.12842,2.12842,0,0,0-.5863-1.49476h1.46692v-.94213H14.037a2.79883,2.79883,0,0,0-1.01276-.17908,2.558,2.558,0,0,0-2.68445,2.58661,2.58728,2.58728,0,0,0,.92346,1.95746v.06079a1.7029,1.7029,0,0,0-.77642,1.345,1.34364,1.34364,0,0,0,.63086,1.18066v.0597a2.10219,2.10219,0,0,0-1.04194,1.64453c0,1.2561,1.20319,1.95861,2.94849,1.95861,2.216,0,3.60864-1.16632,3.60864-2.51123C16.63287,24.00668,15.79651,23.48312,14.13977,23.48312Zm-1.11554-5.65026a1.53119,1.53119,0,0,1,1.51117,1.68939,1.52559,1.52559,0,1,1-3.02277,0A1.5313,1.5313,0,0,1,13.02423,17.83286Zm.1767,9.04388c-1.29145,0-2.069-.49292-2.069-1.27063a1.53424,1.53424,0,0,1,.73333-1.22583,3.39308,3.39308,0,0,0,.92493.11932h1.23145c.92486,0,1.43841.22406,1.43841.89691C15.46,26.15866,14.56512,26.87674,13.20093,26.87674ZM6.40527,16.34793a3.2627,3.2627,0,0,0-2.28936,1.15112l.04242-1.43951V13.2673H3v10.25H4.15833V18.44986c.69262-.70581,1.17266-1.07965,1.87982-1.07965.90435,0,1.29913.56134,1.29913,1.87085V23.5173H8.49561V19.08273C8.49561,17.29861,7.84692,16.34793,6.40527,16.34793ZM28.45544,20.303a2.42159,2.42159,0,0,0-1.66973.93359A1.32814,1.32814,0,0,0,25.387,20.303a2.25459,2.25459,0,0,0-1.5755.8233h-.03113l-.07318-.70312h-.70947V25.303h.85565V21.769A1.918,1.918,0,0,1,25.126,21.0159c.64752,0,.95019.39154.95019,1.30481V25.303h.85559V21.769a1.87694,1.87694,0,0,1,1.27277-.75305c.63739,0,.94006.39154.94006,1.30481V25.303H30V22.21024C30,20.96591,29.49872,20.303,28.45544,20.303ZM16.84778,4.729,15.38434,10.63c-.20648.966-.39087,1.89111-.61749,2.835h-.08228c-.22668-.94391-.453-1.869-.70123-2.835L12.41748,4.729H10.76782L9.22217,10.63c-.24683.94543-.45294,1.89111-.67957,2.835H8.46033c-.18622-.94391-.37073-1.869-.59729-2.835L6.37769,4.729H4.64758L7.43,14.93558h1.9787l1.40106-5.45984c.267-.966.47309-1.93219.69977-2.96173h.084c.24646,1.02954.431,1.97516.67956,2.94122l1.44141,5.48035H15.777L18.45551,4.729Z" />
    </g>
    <g id="icon_7">
        <path id="_007" data-name="007" d="M28.43961,22.02457h-.403L22.09085,9.22665l.8722-.46124L20.64017,7.14462l.08008,2.80677.87219-.46119,5.8028,12.53437h-.83942a.55192.55192,0,0,0-.40765.18274l-6.00074-3.9795.50336-.84082-2.83765-.19659,1.54328,2.3587.50336-.84082,6.13793,4.0575v1.69378a.56672.56672,0,0,0,.56507.565h1.86993a.565.565,0,0,0,.565-.565V22.58267A.5581.5581,0,0,0,28.43961,22.02457Zm.0581,2.435a.0651.0651,0,0,1-.065.065H26.56278a.06675.06675,0,0,1-.06507-.065V22.58267a.05817.05817,0,0,1,.05811-.0581h1.88379a.05816.05816,0,0,1,.0581.0581Zm-9.935-17.435h1.87689a.55811.55811,0,0,0,.5581-.55811V4.58957a.56669.56669,0,0,0-.565-.565H18.55582a.55811.55811,0,0,0-.55811.5581V6.45956A.5667.5667,0,0,0,18.56272,7.02457Zm-.065-2.4419a.05817.05817,0,0,1,.05811-.0581h1.87689a.06672.06672,0,0,1,.065.065V6.46646a.05817.05817,0,0,1-.0581.05811H18.56272a.06674.06674,0,0,1-.065-.065ZM13.80564,20.27841l2.192-3.25384h1.43506a.565.565,0,0,0,.565-.565v-1.87a.55879.55879,0,0,0-.44519-.54065L19.099,12.268l-.9599-.23687,1.07916-4.26068L18.66965,7.635l-1.0791,4.26074-.9599-.23687.53259,2.36566H15.55582a.55811.55811,0,0,0-.55811.5581v1.87689a.56541.56541,0,0,0,.35486.52234l-2.01739,2.98694-.82331-.54175-.35284,2.7862,2.46991-1.39307Zm1.69207-5.69574a.05817.05817,0,0,1,.05811-.0581h1.87689a.06672.06672,0,0,1,.065.065v1.87a.0651.0651,0,0,1-.065.065h-1.87a.06674.06674,0,0,1-.065-.065Zm7.383,8.74683h-10.883v-.73993a.56669.56669,0,0,0-.565-.565H9.55582a.55811.55811,0,0,0-.55811.5581v1.87689a.5667.5667,0,0,0,.565.565h1.01544C10.14084,26.94168,9.32627,28.23,7.944,28.43539a3.35968,3.35968,0,0,1-2.65429-.603,2.21959,2.21959,0,0,1-.78711-1.73694,2.16946,2.16946,0,0,1,1.30188-2.27075l-.01337.92309,2.56152-1.21008-2.525-1.3017-.01422.97681.01575.0003-.0008.0531a2.63606,2.63606,0,0,0-1.82574,2.834,2.69514,2.69514,0,0,0,.96289,2.10657A3.6134,3.6134,0,0,0,7.3,28.97543a4.86025,4.86025,0,0,0,.71875-.0542c2.11762-.31451,2.77271-2.49206,3.07465-3.89666h.34625a.55811.55811,0,0,0,.5581-.55811V23.8876h10.883v.97669l2.54437-1.25574-2.54437-1.25574Zm-11.383,1.137a.05817.05817,0,0,1-.0581.05811H9.56272a.06674.06674,0,0,1-.065-.065V22.58267a.05817.05817,0,0,1,.05811-.0581h1.87689a.06672.06672,0,0,1,.065.065Z" />
    </g>
    <g id="icon_8">
        <path id="_008" data-name="008" d="M9,12.50018A2.5,2.5,0,1,1,11.49994,15,2.50015,2.50015,0,0,1,9,12.50018Zm9.22223,5.79395C15.78485,22.93939,10.40479,14.68188,6,19.35291,6.02661,19.36481,6,23.8,6,23.8H27V12S21,13,18.22223,18.29413ZM28.75,9V24a.25072.25072,0,0,1,.25.25v1.5a.25.25,0,0,1-.25.25h-1.5a.25072.25072,0,0,1-.25-.25H6a.25.25,0,0,1-.25.25H4.25A.25072.25072,0,0,1,4,25.75v-1.5A.25.25,0,0,1,4.25,24V9A.25072.25072,0,0,1,4,8.75V7.25A.25.25,0,0,1,4.25,7h1.5A.25072.25072,0,0,1,6,7.25H27A.25.25,0,0,1,27.25,7h1.5a.25072.25072,0,0,1,.25.25v1.5A.25.25,0,0,1,28.75,9ZM28.5,7.5h-1v1h1Zm-24,1h1v-1h-1Zm0,17h1v-1h-1Zm24-1h-1v1h1ZM28.25,9h-1A.25072.25072,0,0,1,27,8.75v-1H6v1A.25.25,0,0,1,5.75,9h-1V24h1a.25072.25072,0,0,1,.25.25v1H27v-1a.25.25,0,0,1,.25-.25h1Z" />
    </g>
    <g id="icon_9">
        <path id="_009" data-name="009" d="M27.9603,14.80508,28,14.79373l-.00945-.009-.01229.00284.00283.00236-.09926-.03593-5.45269-2.58764.76-3.34967-2.90974.73885L17.8679,5,14.41365,9.89119,9.70588,6.68571l-.32425,4.28942-2.16387.24912,1.85191,3.11331L5,18.56317l1.003.61264-.53695.83623L9.88644,21.521,9.66712,23.001l1.26486-.31767.77423,3.59784,1.2346-.57529L14.26712,28l3.82671-4.57967,3.98743,2.67793.276-3.07738,3.546-.25952-2.83317-3.97271Zm-1.23178-.11629-5.21824,1.534.82622-3.64417Zm-4.14529-5.2566L21.06975,16.0937l-4.97624-4.92759ZM13.95894,17.423l1.71011-5.97277,1.60045,2.1433Zm3.63765-3.491,3.095,2.48318-6.59183,1.54011Zm3.27747,2.92233-.36773,1.18935-1.296,4.062L14.028,18.46863ZM17.90855,6.07117l1.89351,3.59406L15.981,10.622Zm-.85742.84853L15.4469,10.59507l-.65417-.44577ZM10.085,7.55456l4.8524,3.26977-5.16531.91849Zm5.15585,3.69286-.8905,3.13221-.99544,3.43287L9.41,12.28455Zm-4.202,4.10128-.18245.15741L9.54517,14.23687l-.191-1.24324ZM8.81915,12.225l.16638,1.0863L7.97686,11.5769l1.35277-.14323-.01323.37864-.69293.13567Zm.59178,2.51249,3.55824,3.46312L6.44636,19.3649ZM5.74114,18.42419,7.0372,17.0727l.18906.1489-.9926,1.543Zm4.48,3.9746.09075-.73224.4254.14512.09737.4349Zm.63148-1.0707-4.496-1.46495L12.91718,18.679Zm.32992.35406,1.867-2.40376L11.9208,25.1741Zm3.14229,5.51376-.9614-1.66774,3.86075-1.75662Zm-1.99654-1.73014,1.27147-6.64639,4.05265,4.22041Zm3.88627-4.59858.15692-.18247,2.508,1.76323-.77518.39141Zm5.48294,4.39673-2.923-1.94,3.09408-.269Zm3.3635-2.87742-5.89227.43631.63054-.31861-.18434-.11487L21.2815,17.033ZM22.7912,18.39488l-1.18828-1.67861,5.34114-1.61338Z" />
    </g>
    <g id="icon_10">
        <path id="_010" data-name="010" d="M14.81226,17.49969l.26321.001.72794,11.26285c.00617.13158.1604.23643.34341.23643.18713-.00051.34033-.10639.34444-.23592l.658-15.72368h.26321l.56138,13.24219c.00515.128.15834.23334.34033.2354h.001c.18815,0,.33724-.0992.34649-.23078L19.33,17.63949l.26322-.001.55315,6.323c.01028.1249.16348.22667.34238.22667.17993-.00052.33416-.10383.34341-.22924l.68682-9.04194.26219-.00411.53362,5.07658c.01336.1213.15936.21947.3321.2241a.32972.32972,0,0,0,.35266-.21125l.69813-3.74794.78861,5.60392a.32185.32185,0,0,0,.33518.21845h.00308a.32646.32646,0,0,0,.34547-.21176l.80814-4.34982.68168,2.50051a.3399.3399,0,0,0,.3393.19789.33554.33554,0,0,0,.34135-.20765l.63541-3.05407.2118,1.85136c.01337.12386.1676.22409.34341.22409.181-.00051.33107-.09971.34341-.22564l.00617-.03186L29,18.43616,28.42834,14.167a.31815.31815,0,0,0-.329-.22666.33838.33838,0,0,0-.35575.20816L26.96422,18.56l-.7115-2.60588a.33939.33939,0,0,0-.33415-.19788l-.01542.00051a.3257.3257,0,0,0-.33.21074l-.69813,3.749-.7886-5.60444a.32322.32322,0,0,0-.33622-.21844.33311.33311,0,0,0-.34649.21124l-.6498,3.491L21.918,9.64607c-.01336-.12335-.16759-.22409-.34341-.22409-.182.00154-.33415.10434-.34341.22923l-.64363,8.47143-.26321.00154-.57784-6.61184c-.01028-.1249-.1645-.22718-.34341-.22718-.18095.001-.33415.10433-.34341.23077L18.57948,18.558l-.26321-.00206-.74029-14.32C17.57187,4.10485,17.41764,4,17.23257,4c-.1861.00051-.34032.10639-.34444.23643L16.19823,21.336l-.26321.00051L15.40551,9.53146c-.00514-.12747-.15731-.23181-.33827-.23387h-.00308c-.17479,0-.33621.10691-.34547.22975l-.57783,7.7426-.26321-.001-.64261-9.852c-.00823-.12695-.16142-.23026-.34135-.23078-.182,0-.33519.1028-.34444.22924l-.72178,9.578-.26218.00617-.50072-4.12623a.32286.32286,0,0,0-.33827-.222.32789.32789,0,0,0-.34649.2169l-.81123,5.29245L8.892,15.21556a.34025.34025,0,0,0-.3506-.20405.31859.31859,0,0,0-.33108.2169l-.7156,4.75175-.77113-5.99044a.321.321,0,0,0-.33416-.2205.33536.33536,0,0,0-.34958.21228L5.4014,17.49507l-.71355-2.45889a.33.33,0,0,0-.35369-.23951h-.001A.3241.3241,0,0,0,4,15.0074l.95312,4.97893a.32288.32288,0,0,0,.33724.22718.33482.33482,0,0,0,.34855-.21228l.68373-3.76233.802,6.23818a.3213.3213,0,0,0,.3393.22049h.01131a.3096.3096,0,0,0,.33313-.21638l.81534-5.404.67345,2.93226a.33349.33349,0,0,0,.3393.204.328.328,0,0,0,.34341-.2169l.70224-4.58728.78141,6.44583a.3229.3229,0,0,0,.34341.22153c.183-.00257.33416-.10537.34341-.22924l.57578-7.649.26321.001.64363,9.8823c.00823.12644.16245.23027.34341.23078.181,0,.33416-.10228.34341-.22872Z" />
    </g>
    <g id="icon_11">
        <path id="_011" d="M28.625,8.75h-19A1.25116,1.25116,0,0,0,8.375,10v1.5H4.625a1.5,1.5,0,0,0-1.5,1.5v7a1.5,1.5,0,0,0,1.5,1.5h3.75V23a1.25116,1.25116,0,0,0,1.25,1.25h19A1.25116,1.25116,0,0,0,29.875,23V10A1.25116,1.25116,0,0,0,28.625,8.75Zm-23,5.75h5v1.25h-5Zm0,2.75h5V18.5h-5ZM29.375,23a.75113.75113,0,0,1-.75.75h-19a.75113.75113,0,0,1-.75-.75V21.5h2.75a1.5,1.5,0,0,0,1.5-1.5V13a1.5,1.5,0,0,0-1.5-1.5H8.875V10a.75083.75083,0,0,1,.75-.75h19a.75083.75083,0,0,1,.75.75Z" />
    </g>
    <g id="icon_12">
        <path id="_012" data-name="012" d="M16.5,5.025A11.475,11.475,0,1,0,27.975,16.5,11.475,11.475,0,0,0,16.5,5.025Zm9.56035,16.57739-1.5556-.89813-.36142.62591,1.54706.89316a10.907,10.907,0,0,1-3.46706,3.467l-.89316-1.547-.62591.36142.89813,1.5556a10.76576,10.76576,0,0,1-4.741,1.26266V25.53443h-.72272V27.323a10.76576,10.76576,0,0,1-4.741-1.26266l.89813-1.5556-.62591-.36142-.89316,1.547a10.907,10.907,0,0,1-3.46706-3.467l1.54706-.89316-.36142-.62591-1.5556.89813a10.76576,10.76576,0,0,1-1.26266-4.741H7.46557v-.72278H5.677a10.76615,10.76615,0,0,1,1.26266-4.741l1.5556.89813.36142-.62591-1.54706-.89316a10.90708,10.90708,0,0,1,3.46706-3.46706l.43242.74891-.12976.12976,5.20979,8.4659-.15048.20718.37751.16178.34521.561.17-.34018,4.16648,1.78567.72278-.72277-4.77458-2.83256-.00252.00345L11.80211,7.46551l-.064.064-.34051-.58984a10.76576,10.76576,0,0,1,4.741-1.26266V7.46551h.72272V5.677a10.7667,10.7667,0,0,1,4.741,1.26266l-.89813,1.5556.62591.36135.89316-1.547a10.90708,10.90708,0,0,1,3.46706,3.46706l-1.54706.89316.36142.62591,1.5556-.89813a10.76615,10.76615,0,0,1,1.26266,4.741H25.53443v.72278H27.323A10.76576,10.76576,0,0,1,26.06035,21.60239Z" />
    </g>
    <g id="icon_13">
        <path id="_013" data-name="013" d="M16.05242,18.48269a.50858.50858,0,0,0,.89542,0l3.99454-7.61314a5.03554,5.03554,0,0,0,.80781-2.73516,5.2513,5.2513,0,0,0-10.5,0,5.03469,5.03469,0,0,0,.80737,2.73452ZM16.50013,5.1A3.15,3.15,0,1,1,13.35,8.25013,3.15015,3.15015,0,0,1,16.50013,5.1Zm6.174,5.05151c-.0571.19-.12356.37748-.19726.56076a10.30306,10.30306,0,0,1,1.977,2.05751.13367.13367,0,0,1-.01557.17394,4.92773,4.92773,0,0,1-1.99259.98123,15.093,15.093,0,0,1-1.74759.4024l-.52231,1.06173a24.76568,24.76568,0,0,1,.26372,3.63636c0,.69829-.028,1.39972-.082,2.084a.13372.13372,0,0,1-.11728.12144A32.59953,32.59953,0,0,1,16.5,21.4376a32.41744,32.41744,0,0,1-3.73966-.20719.13269.13269,0,0,1-.11683-.12093c-.055-.68169-.08306-1.38313-.08306-2.084a24.89631,24.89631,0,0,1,.2632-3.63585l-.52077-1.06224a15.06977,15.06977,0,0,1-1.74809-.4024,4.91488,4.91488,0,0,1-1.9926-.98123.13309.13309,0,0,1-.01557-.17394,10.26377,10.26377,0,0,1,1.97753-2.05751c-.07319-.18123-.13964-.36862-.19828-.56076a11.30647,11.30647,0,0,0-2.45421,15.1249,1.62878,1.62878,0,0,0,.16041.2368A10.41078,10.41078,0,0,0,16.5,30a10.40615,10.40615,0,0,0,8.46063-4.47692,1.64973,1.64973,0,0,0,.16406-.23988,11.30807,11.30807,0,0,0-2.45056-15.13169ZM12.766,21.85135a.12593.12593,0,0,1,.1085-.03788,33.59008,33.59008,0,0,0,7.25143,0,.13046.13046,0,0,1,.10908.03788.13386.13386,0,0,1,.03736.10959,17.661,17.661,0,0,1-1.12665,4.63579l-.09138.20924a.13392.13392,0,0,1-.109.07889c-.784.07165-1.60685.108-2.44536.108s-1.66088-.03634-2.44434-.108a.13324.13324,0,0,1-.10952-.07889l-.02128-.04832c-.0239-.05294-.04723-.10638-.07011-.162a17.68415,17.68415,0,0,1-1.12665-4.63476A.13241.13241,0,0,1,12.766,21.85135Zm-6.2256-2.71793-.00307-.108A10.6903,10.6903,0,0,1,8.0809,13.47487a.13132.13132,0,0,1,.09344-.06236.13783.13783,0,0,1,.108.03173,8.41419,8.41419,0,0,0,3.93852,1.4547.13275.13275,0,0,1,.10908.15215,25.19162,25.19162,0,0,0-.30685,3.97435c0,.637.02442,1.29539.07268,1.9558a.13253.13253,0,0,1-.13241.14279l-.01974-.00161c-2.57828-.38208-4.58388-1.09184-5.36574-1.89863A.134.134,0,0,1,6.54044,19.13342ZM8.6011,25.346a.1376.1376,0,0,1-.02436-.02493A10.63,10.63,0,0,1,6.609,20.24866a.13287.13287,0,0,1,.20456-.1267,13.79166,13.79166,0,0,0,5.24533,1.58872.13384.13384,0,0,1,.11369.11734,18.936,18.936,0,0,0,1.10018,4.77236.13237.13237,0,0,1-.12363.18118l-.01711-.001a16.40287,16.40287,0,0,1-2.57725-.52955A6.0203,6.0203,0,0,1,8.6011,25.346Zm5.94835,3.87674a.12619.12619,0,0,1-.02756-.00307,9.7938,9.7938,0,0,1-4.438-2.24657.1328.1328,0,0,1,.12824-.22635,17.3587,17.3587,0,0,0,3.344.66406.13092.13092,0,0,1,.10434.07268,6.93668,6.93668,0,0,0,.98854,1.51809.13313.13313,0,0,1-.09966.22116ZM16.5,29.42629c-.70662,0-1.45426-.61421-2.10423-1.73a.13254.13254,0,0,1,.002-.137.12564.12564,0,0,1,.122-.06229,28.32188,28.32188,0,0,0,3.96032,0,.12868.12868,0,0,1,.12253.06229.135.135,0,0,1,.00212.137C17.95477,28.81208,17.20765,29.42629,16.5,29.42629Zm6.41715-2.45267a9.81224,9.81224,0,0,1-4.439,2.24606.11492.11492,0,0,1-.027.00307.13417.13417,0,0,1-.1153-.06594.13576.13576,0,0,1,.01558-.15522,6.876,6.876,0,0,0,.98751-1.51758.13352.13352,0,0,1,.10485-.07319,17.45707,17.45707,0,0,0,3.34463-.66355.13134.13134,0,0,1,.15573.06127A.13294.13294,0,0,1,22.91715,26.97362Zm1.50354-1.6494a.11025.11025,0,0,1-.0239.02544,6.07066,6.07066,0,0,1-1.95106.90132,16.48756,16.48756,0,0,1-2.57623.52955l-.01763.001a.135.135,0,0,1-.10491-.05089.13138.13138,0,0,1-.01865-.13029,19.00444,19.00444,0,0,0,1.10063-4.77287.13292.13292,0,0,1,.11318-.11734A13.78042,13.78042,0,0,0,26.1859,20.122a.13743.13743,0,0,1,.14228-.00153.13255.13255,0,0,1,.06229.12823A10.61745,10.61745,0,0,1,24.42069,25.32422Zm2.002-6.10043c-.78083.80627-2.787,1.516-5.36625,1.89863l-.01974.00161a.13409.13409,0,0,1-.13292-.14279c.04877-.65106.0737-1.30891.0737-1.9558a25.27405,25.27405,0,0,0-.30627-3.97487.13208.13208,0,0,1,.108-.15163,8.40949,8.40949,0,0,0,3.93852-1.4547.14224.14224,0,0,1,.108-.03173.12922.12922,0,0,1,.09344.06236,10.69739,10.69739,0,0,1,1.543,5.55057l-.002.10593A.13389.13389,0,0,1,26.42264,19.22379Z" />
    </g>
    <g id="icon_14">
        <path id="_014" data-name="014" d="M29.1998,10.61018a.79013.79013,0,0,0-.60515.28985l-1.55972-.63056a.85571.85571,0,0,0,.02248-.11.92136.92136,0,0,0-.86788-.91091l-.35137-1.77282a.78192.78192,0,0,0,.419-.68346.8002.8002,0,0,0-1.60033,0,.78668.78668,0,0,0,.70815.77388l.35054,1.77183a.91683.91683,0,0,0-.52523.82148.8972.8972,0,0,0,.10412.40485l-2.40871,2.09768a.88046.88046,0,0,0-1.26481.25046l-2.60281-.87251a.98478.98478,0,0,0,.02018-.099,1.04969,1.04969,0,0,0-.953-1.03344l-.28633-2.30235a1.05351,1.05351,0,0,0,.70591-.98746,1.07128,1.07128,0,0,0-2.14245,0,1.054,1.054,0,0,0,.9571,1.03768l.28639,2.30241a1.04946,1.04946,0,0,0-.70144.98316,1.02133,1.02133,0,0,0,.13567.48711l-2.47387,2.13526a1.07018,1.07018,0,0,0-.62716-.22022,1.08177,1.08177,0,0,0-1.01373.70618l-2.19418-.28478A1.001,1.001,0,0,0,9.393,13.86568L7.98852,11.37a1.02671,1.02671,0,0,0-.47126-1.78308V8.62925a.78442.78442,0,0,0,.55919-.7441.80021.80021,0,0,0-1.60034,0,.78449.78449,0,0,0,.559.744V9.587a1.03644,1.03644,0,0,0-.80743.91837l-1.71464.24784a.79507.79507,0,1,0-.71285,1.13655.787.787,0,0,0,.77371-.66266l1.71387-.24772a1.06234,1.06234,0,0,0,.98853.6718,1.04215,1.04215,0,0,0,.2858-.05715L8.96675,14.09a1.02325,1.02325,0,0,0,.02714,1.57538L7.82573,17.90245a1.04252,1.04252,0,0,0-.28269-.05651,1.06158,1.06158,0,0,0-1.06693,1.05621c0,.01934.01007.03542.01113.05448l-1.7204.38714a.79595.79595,0,1,0,.09016.46906l1.77167-.39874a1.01461,1.01461,0,0,0,1.428.39553L10.0883,21.821a.89177.89177,0,0,0-.13607.45181.93358.93358,0,0,0,1.86706,0,.88482.88482,0,0,0-.04861-.23834l2.22173-1.29333a1.063,1.063,0,0,0,.76953.33156,1.05185,1.05185,0,0,0,.888-.50553l2.87532.96649a.98243.98243,0,0,0-.02048.10056A1.06593,1.06593,0,0,0,19.576,22.69476l.01307-.00262.57313,2.31272a1.05057,1.05057,0,0,0-.59049.93462A1.07128,1.07128,0,1,0,20.64294,24.879l-.01406.0028-.573-2.31237a1.05071,1.05071,0,0,0,.59138-.9352,1.02534,1.02534,0,0,0-.13766-.49132L22.70406,19.244a1.01736,1.01736,0,0,0,1.50675-.29276l2.06683.69319a.972.972,0,0,0-.02049.10032,1.11856,1.11856,0,1,0,.17845-.55121l-2.06629-.693a.98628.98628,0,0,0,.02072-.10172,1.06066,1.06066,0,0,0-1.02744-1.05173l-.58167-3.10093a.91823.91823,0,0,0,.53364-.82707.89718.89718,0,0,0-.10411-.4048l2.40877-2.09773a.87943.87943,0,0,0,1.23343-.20462L28.412,11.342c-.00171.021-.01231.039-.01231.06048a.80021.80021,0,1,0,.80014-.79229Zm-17.66,11.00524a.93436.93436,0,0,0-.65406-.2666.91443.91443,0,0,0-.4566.13481l-2.01974-1.999A1.02111,1.02111,0,0,0,8.61,18.90215a1.0387,1.0387,0,0,0-.358-.7772L9.42547,15.878a1.03808,1.03808,0,0,0,.25567.05109,1.06407,1.06407,0,0,0,.99583-.69056l2.19319.28489a1.06907,1.06907,0,0,0,1.01513.96585l.45778,2.55643a1.05564,1.05564,0,0,0-.64806.9708,1.01865,1.01865,0,0,0,.0628.30773Zm4.26872-1.49905a.98561.98561,0,0,0,.02036-.09986,1.05494,1.05494,0,0,0-1.00972-1.04479l-.45789-2.55614a1.07842,1.07842,0,0,0,.66742-.9941,1.04214,1.04214,0,0,0-.14179-.50215l2.47381-2.13561a1.013,1.013,0,0,0,1.49928-.293l2.599.87141c-.00129.01987-.01159.0367-.01159.05692a.92051.92051,0,0,0,.859.9091l.582,3.10245a1.05851,1.05851,0,0,0-.64082.96818,1.02553,1.02553,0,0,0,.1362.48921l-2.19548,1.89948a1.01691,1.01691,0,0,0-1.5047.295ZM8.61427,8.44462a.79661.79661,0,1,1-.80455.7966A.80055.80055,0,0,1,8.61427,8.44462Z" />
    </g>
    <g id="icon_15">
        <path id="_015" data-name="015" d="M16.60484,10.02257l.06426.06592.05072-.04193.25033-.20387.20968-.17375-.76776-.77618.76776-.77318-.20292-.16775L16.73,7.748,16.6691,7.7l-.071.06892-.22321.2278-.88957.896.893.902Zm.575,2.35846-.76776-.77624.76776-.77318-.21306-.17375-.247-.20381-.05072-.04192-.06426.06291-.22659.22774-.893.902,1.1838,1.19573Zm-.57837-5.06455.06764.06891.05749-.04792.24694-.20075.2063-.16788-.76776-.77618.76776-.77305L16.6691,5,15.4853,6.19266l.88957.896Zm.06764,12.886-1.1838,1.19266.90648.91408.22659.23073.05073.05092.0372-.02993.24694-.2038.22659-.18582-.76776-.77618.76776-.77311Zm.32472,5.67585-.25026-.2038-.07446-.05992-.08117.08091-.22659.22774-.876.884L16.6691,28l.51073-.41955-.76776-.77318.76776-.77618Zm-.0372-2.70609-.25032-.20381-.0372-.02986-.05073.05085-.22659.23074-.90648.91407.876.881.22321.22773.08455.08391.07446-.063.25026-.20374.186-.15282-.76776-.77312.76776-.77618ZM11.7647,18.86893c0-.59637.52088-1.14781,1.35295-1.5523V15.62645c-.83207-.40449-1.35295-.956-1.35295-1.5523,0-.96026,1.34612-1.79923,3.17063-2.11375l-.34974-.35261.23565-.23935c-2.16685.3715-3.733,1.441-3.733,2.70571a2.03182,2.03182,0,0,0,.876,1.54924c-1.95167-.65922-3.24369-1.72312-3.24369-2.89778,0-1.69549,2.69889-3.16342,6.17976-3.51552l-.31477-.31733.2814-.2837c-3.889.37763-6.82289,2.07719-6.82289,4.11655a3.0971,3.0971,0,0,0,1.56269,2.43031c-2.38456-.91695-3.93035-2.28349-3.93035-3.77886,0-2.42853,4.07175-4.51721,9.20446-4.88666l-.29531-.29774.30175-.30424C9.29942,6.26649,5,8.57844,5,11.37706c0,2.28355,2.86485,4.24633,6.95753,5.09448C7.86485,17.31963,5,19.28248,5,21.566c0,2.78873,4.26847,5.09455,9.82723,5.485l-.24164-.24369.34859-.35146c-5.15759-.35874-9.25774-2.453-9.25774-4.88985,0-1.49537,1.54579-2.86185,3.93035-3.7788A3.097,3.097,0,0,0,8.0441,20.21748c0,2.02327,2.88763,3.71256,6.731,4.10786l-.18951-.19111.39026-.39358c-3.51737-.33819-6.25525-1.81544-6.25525-3.52317,0-1.17474,1.292-2.23857,3.24369-2.89785a2.0372,2.0372,0,0,0-.876,1.5493c0,1.25028,1.53169,2.30875,3.66024,2.69174l-.1629-.16553.39236-.39555.00791-.008C13.13552,20.68405,11.7647,19.83813,11.7647,18.86893Zm9.27439-2.39739C25.13176,15.62339,28,13.66061,28,11.37706,28,8.5004,23.455,6.137,17.64206,5.86047l-.33028.33219.26386.26545c5.38309.256,9.74792,2.40536,9.74792,4.919,0,1.49537-1.54579,2.86191-3.93373,3.77886a3.1017,3.1017,0,0,0,1.56607-2.43031c0-2.12556-3.19028-3.8816-7.32207-4.15675l-.32205.3239.27024.274c3.72488.2523,6.69738,1.78022,6.69738,3.55885,0,1.17466-1.2954,2.23856-3.24708,2.89778a2.03628,2.03628,0,0,0,.87943-1.54924c0-1.37-1.8395-2.51192-4.28673-2.78439l-.31324.315.28383.28778c2.05868.24178,3.63969,1.1406,3.63969,2.18158,0,.5963-.52088,1.14781-1.35295,1.5523v1.69018c.83207.40449,1.35295.95593,1.35295,1.5523,0,1.02956-1.54668,1.91971-3.57224,2.17316l-.35128.356.25984.26137c2.474-.26162,4.34013-1.41058,4.34013-2.79058a2.03157,2.03157,0,0,0-.87943-1.5493c1.95168.65928,3.24708,1.72311,3.24708,2.89785,0,1.76452-2.92554,3.28306-6.6092,3.55336l-.35842.36339.2435.245c4.16982-.258,7.40062-2.02276,7.40062-4.16171a3.10163,3.10163,0,0,0-1.56607-2.43032c2.38794.917,3.93373,2.28343,3.93373,3.7788,0,2.50427-4.3326,4.64661-9.688,4.91569l-.32377.32562.27566.27732C23.42633,26.82029,28,24.45168,28,21.566,28,19.28248,25.13176,17.31963,21.03909,16.47154Zm-6.63,1.07391h4.18182v-2.0909H14.40909Z" />
    </g>
    <g id="icon_16">
        <path id="_016" data-name="016" d="M5,24H6.5V17H5Zm3-4H9.5V12H8Zm3-5h1.5V7H11Zm3,4h1.33331V12H14Zm3,3h1.5V17H17Zm2-6h1.5V12H19Zm3-1h1.5V8H22Zm3,6h1.5V13H25Zm3-9v4h1.5V12Zm2,13v1H3V7H4V25Z" />
    </g>
    <g id="icon_17">
        <path id="_017" data-name="017" d="M11.874,22.40454A4.05548,4.05548,0,0,1,12.661,25H5.7386a3.39023,3.39023,0,0,1,.57075-2.4809c.53937-.574,1.904-.40527,1.644-1.47192-.19859-.81482-.89652-1.26154-.89453-2.215A1.90849,1.90849,0,0,1,9.11642,17,2.07861,2.07861,0,0,1,11.08,18.86383c.07474.91174-.61369,1.40057-.80237,2.18982C9.99571,22.233,11.27763,21.8468,11.874,22.40454ZM16.62418,22h1.4862V10h-1.4862ZM22.569,22h1.4862V11H22.569Zm5.94481-9v9H30V13ZM14.4389,20.417c-.42973-.2381-.98324-.06836-1.32571-.51574a1.1074,1.1074,0,0,1,.0052-1.17273c.314-.71393.86061-1.35169.6152-2.17481a1.81946,1.81946,0,0,0-3.25983-.47949,3.386,3.386,0,0,1,1.27769,4.85351A2.683,2.683,0,0,1,13.48,22.75h1.88291C15.28583,22.01,15.182,20.82874,14.4389,20.417Zm-6.87321-4.331c-.73421-1.17005-2.819-1.13043-3.18527.34863-.2428.98059.5182,1.62024.8043,2.44727.44043,1.27307-.82794,1.13464-1.5012,1.65893A2.715,2.715,0,0,0,3.0021,22.75H4.77278a2.8431,2.8431,0,0,1,1.68213-1.78711C5.49284,19.37958,5.57732,16.84717,7.56569,16.08594ZM19.59658,22h1.4862V13h-1.4862Zm5.94481,0h1.4862V8h-1.4862ZM14.62558,15.53027a3.56883,3.56883,0,0,1,.16842.3313,3.13924,3.13924,0,0,1,.1998.61017l.01095.05682.00266.01435c.01506.08117.02552.15887.03254.23932l.00477.05462.00109.02332a1.91171,1.91171,0,0,1-.00883.31811l-.01306.09131a4.14767,4.14767,0,0,1-.31755,1.15106,5.07279,5.07279,0,0,1-.32414.59266l-.05376.08886.05927.00849a1.97478,1.97478,0,0,1,.43069.11114c.0433.01618.08479.03455.13014.05622a1.998,1.998,0,0,1,.1894.10418V12h-1.4862v2.48663c.06634.04462.13558.08319.19884.13379A3.21138,3.21138,0,0,1,14.62558,15.53027Z" />
    </g>
    <g id="icon_18">
        <path id="_018" data-name="018" d="M11.96173,18.88461l-.52319-.13427c-.54071,1.63012-.97669,1.95617-2.16266,1.95617H4.98547L8.97937,14.512,5.59589,8.93118H8.28174c1.29065,0,1.72662.13422,2.00567.55616a4.32186,4.32186,0,0,1,.68018,1.66845l.5058-.09588c-.08722-1.11231-.17444-2.5315-.1919-2.85749H3.60767V8.701L7.5318,15.29831,3.381,21.70377v.49865h7.90051ZM5.375,26.52872a.57834.57834,0,0,1,.29364.07031c.03833.0141.083-.014.12775-.05627a.6585.6585,0,0,0,.15319-.36591.28458.28458,0,0,0-.31286-.26032c-.33832,0-.73419.42218-1.09168.80213-.17883.19-.33837.37292-.52356.6051H4.00873c.20428-.99206.38946-1.93494.60016-2.927.03192-.15479.03192-.21814-.04474-.21814a9.69574,9.69574,0,0,1-1.10449.23926l-.04468.24621.19153.007c.249.0141.26812.05634.217.33777C3.54907,26.47238,3.28088,27.78812,3,29.16019l.04468.04223a4.23614,4.23614,0,0,1,.65759-.14074c.05743-.37995.13409-.78809.217-1.23835a2.886,2.886,0,0,1,.26178-.3518c.1341.45733.28729.90765.42139,1.23834.14044.35883.28729.49255.45965.49255s.49164-.13372.83637-.67547l-.134-.197c-.15961.18994-.28736.28845-.35114.28845-.09583,0-.17883-.17591-.35754-.64026a9.22206,9.22206,0,0,1-.35755-1.02728A1.01658,1.01658,0,0,1,5.375,26.52872Zm.90729,1.6394h3.173V27.7178h-3.173Zm0-1.31579h3.173V26.402h-3.173Zm5.08923-2.20228h-.00635c-1.0343,0-1.39178,1.24537-1.39178,2.27967,0,1.05542.34473,2.2727,1.39178,2.2727S12.75061,27.95,12.75061,26.9227C12.75061,25.8743,12.41217,24.65005,11.37152,24.65005Zm0,4.24274c-.45965,0-.61926-1.04132-.61926-1.98413,0-.94989.12128-1.949.6001-1.949h.0064c.46607,0,.61292.964.61292,1.956C11.97168,27.88669,11.85034,28.89279,11.37152,28.89279Zm5.95087-10.63952a4.34018,4.34018,0,0,0-1.5697,3.59051V21.852a4.36175,4.36175,0,0,0,1.5697,3.60681l.17035-.21216A5.02926,5.02926,0,0,1,16.39685,21.852a5.02146,5.02146,0,0,1,1.09589-3.39472Zm3.53723,3.13244c-.37415,0-.96979.3703-1.56537,1.16132H19.279c.21381-1.0351.40466-1.99439.63379-3.02948.03815-.17676.03052-.26929-.05347-.26929a12.33133,12.33133,0,0,1-1.29809.2945l-.03058.24407.20618.00843c.28253.00842.31311.0589.24438.43756-.252,1.3128-.48108,2.45727-.68725,3.61017a1.58278,1.58278,0,0,0,.05346,1.0603.81886.81886,0,0,0,.71015.38715,2.19426,2.19426,0,0,0,1.24463-.47132,3.21977,3.21977,0,0,0,1.153-2.44043C21.4552,21.78122,21.21851,21.38571,20.85962,21.38571Zm-1.04608,3.37451a.619.619,0,0,1-.34363.12622c-.252,0-.54218-.21038-.3971-1.11077a6.31112,6.31112,0,0,1,.13746-.69007c.43524-.69006.93158-1.10242,1.16064-1.10242h.00763c.11456,0,.22144.16834.22144.547A3.28807,3.28807,0,0,1,19.81354,24.76022Zm3.43786-.28961V21.43167a8.58591,8.58591,0,0,1-1.12658.30744v.1596l.26825.01776c.22528.0177.24676.05323.24676.36066v2.19348c0,.42572-.04291.49664-.48822.53217V25.186h1.58264v-.18322C23.28894,24.96725,23.2514,24.88449,23.2514,24.47061Zm1.45179-6.21734-.17035.19586A5.1301,5.1301,0,0,1,25.62872,21.852a4.97724,4.97724,0,0,1-1.09588,3.40283l.17035.204a4.3456,4.3456,0,0,0,1.5697-3.59863V21.852A4.325,4.325,0,0,0,24.70319,18.25327Zm3.82055,5.0783a.39125.39125,0,0,1,.19867.04761c.02161.00952.05182-.00476.08209-.03332a.39868.39868,0,0,0,.09937-.23322.1851.1851,0,0,0-.20734-.17139c-.216,0-.48809.29041-.73.55219-.11664.12854-.22461.25232-.34985.41412H27.608c.14258-.68542.27216-1.34234.41468-2.03259.0216-.09992.01727-.14276-.03022-.14276a6.077,6.077,0,0,1-.73431.16656l-.03021.14283.12091.00476c.17712.00952.19006.03808.15551.23327-.18573,1.00434-.36712,1.90882-.56152,2.8418l.03027.02856a2.69788,2.69788,0,0,1,.43189-.09521c.03888-.2428.08643-.50934.14685-.833a1.40521,1.40521,0,0,1,.17279-.23328c.0907.30939.1944.5998.2851.82831.0993.24274.19433.33319.3023.33319.11664,0,.32831-.09045.55286-.45227l-.0777-.11419c-.1037.12378-.19006.19043-.23327.19043-.06476,0-.12958-.1333-.24189-.42847a5.74586,5.74586,0,0,1-.25482-.714A.71847.71847,0,0,1,28.52374,23.33157Zm-11.031-10.59735a5.02937,5.02937,0,0,1-1.09589-3.39465,5.02146,5.02146,0,0,1,1.09589-3.39472l-.17035-.204a4.34,4.34,0,0,0-1.5697,3.59045v.00824a4.36183,4.36183,0,0,0,1.5697,3.60681Zm1.18274-1.06848A1.52706,1.52706,0,0,0,19.561,11.197a5.928,5.928,0,0,0,.94629-1.129h.02607l-.12153.65064c-.14758.81323.01734.94714.20832.94714a2.501,2.501,0,0,0,1.4411-1.08111l-.13019-.24872a1.8512,1.8512,0,0,1-.599.47833c-.05212,0-.06946-.09564-.01739-.39227.18231-1.15766.41668-2.277.58166-3.02332l-.04339-.03827a3.03975,3.03975,0,0,1-.44275-.067,2.82523,2.82523,0,0,0-.54694-.067h-.00867a2.77722,2.77722,0,0,0-1.76233.81323,3.60139,3.60139,0,0,0-.98968,2.48761C18.10254,11.28305,18.37164,11.66574,18.67548,11.66574Zm1.27618-3.827a.703.703,0,0,1,.46881-.15308h.00867a1.03244,1.03244,0,0,1,.51221.13391c-.0434.29663-.191,1.05243-.30384,1.49255-.191.45923-1.03308,1.57868-1.34564,1.57868-.13019,0-.20837-.17224-.20837-.5741A3.55191,3.55191,0,0,1,19.95166,7.83878Zm3.30505,1.926v2.19348c0,.42572-.043.49664-.48822.53211v.18328h1.58265v-.18328c-.44532-.03547-.48285-.11823-.48285-.53211v-3.039a8.58728,8.58728,0,0,1-1.12659.3075v.1596l.26825.01776C23.23523,9.42178,23.25671,9.45724,23.25671,9.76474Zm2.06336,3.18164a4.34579,4.34579,0,0,0,1.5697-3.59869V9.33957a4.32486,4.32486,0,0,0-1.5697-3.59869l-.17035.1958a5.13027,5.13027,0,0,1,1.09589,3.40289,4.97707,4.97707,0,0,1-1.09589,3.40277Zm2.23968-.3374.03022.02856a2.6999,2.6999,0,0,1,.43194-.09515c.03888-.2428.08637-.5094.14685-.83307a1.40675,1.40675,0,0,1,.17279-.23328c.0907.30945.1944.59986.285.82831.09936.24274.19439.33319.30237.33319.11663,0,.32824-.09045.55285-.45221l-.0777-.11425c-.10369.12377-.19006.19043-.23327.19043-.06482,0-.12958-.13331-.24188-.42841a5.73759,5.73759,0,0,1-.25483-.71405.71838.71838,0,0,1,.46649-.29987.39122.39122,0,0,1,.19867.04761c.02161.00952.05182-.00476.0821-.03332a.39892.39892,0,0,0,.0993-.23328.18506.18506,0,0,0-.20734-.17133c-.21594,0-.488.29035-.72991.55219-.11664.12848-.22461.25226-.34986.41412h-.00867c.14258-.68548.27216-1.34241.41468-2.03259.0216-.1.01727-.14282-.03022-.14282a6.08451,6.08451,0,0,1-.73431.16662l-.03021.14276.12091.00483c.17712.00952.19006.03808.15552.23321C27.93555,10.77158,27.75415,11.676,27.55975,12.609Zm-12.20239,2.8526v.65472H30v-.65472ZM6.12927,4.23123c.44361,0,.77271.42578,1.066.79639-.25757.30749-.601.74115-1.00879.74115H6.17938a.71728.71728,0,0,1-.67254-.757A.69861.69861,0,0,1,6.12927,4.23123Zm2.62573,0h.00715c.37921,0,.67974.26807.6654.79639a.71176.71176,0,0,1-.6582.74115c-.38635-.0473-.60816-.3075-1.02313-.78058C7.96088,4.75162,8.35437,4.23123,8.755,4.23123ZM6.10071,6.20242A1.868,1.868,0,0,0,7.46722,5.343c.49366.59137.86567.85943,1.30213.85943A1.132,1.132,0,0,0,9.89972,5.01968V5.01181A1.1146,1.1146,0,0,0,8.848,3.79758c-.59381,0-.96582.42578-1.37365.87518-.38636-.45728-.76557-.87518-1.33075-.87518a1.13579,1.13579,0,0,0-1.109,1.21423A1.11748,1.11748,0,0,0,6.10071,6.20242Z" />
    </g>
    <g id="icon_19">
        <path id="_019" d="M18,26H17V23h1ZM16.63306,11.81l-1.53962,1.72729L16.63281,15.265l-1.07928.235H13.5v.11365l-.85144-.26972-.0332,1.36444L13.5,17.097v.47883l-1.01666-.44654-1.16675,1.99762L10.149,17.129l-2.11859.93.23028-2.30225L6,15.26373l1.53961-1.72729-1.5393-1.72766,2.26086-.49237L8.03137,9.014l2.11835.93054,1.16675-1.99774,1.1676,1.99792,2.11865-.93-.23034,2.30243Zm-4.67853-.66974,1.09234-.38843.63263-.85309-1.14758.50379Zm1.44592-.12921-.03265,1.186.55469-.78656.12756-1.27545Zm-1.86023.74347v1.4674l1.377-.46435.04034-1.50788Zm-1.03546-1.54859.81183,1.03809.81238-1.038-.81238-1.39019ZM8.95392,9.89807l.63232.85376,1.09278.38861-.57727-.73816Zm.72046,1.35162.0426,1.50788,1.37585.46435v-1.4674ZM8.58386,10.135l.1272,1.2749.55414.78656L9.2326,11.011Zm-.68658,3.14392,1.26385-.469-.75787-1.07581-1.57642.34332ZM7.13214,14.6524l1.03058-.3518.7027-.91327-.90485.33569Zm1.35565.70514.95862-.30328L8.301,14.71661l-1.07276.36628ZM10.017,16.70813l-.03266-1.36426-1.2824.4057L8.54132,17.3559Zm.94482-3.06928-1.37927-.46472-.91766,1.19269,1.44623.42633Zm.131,3.11017-.66174-.96887.023,1.00781.63873,1.09485Zm1.07483-1.69757-.85113-1.1549-.85114,1.1549.85114,1.24188Zm.0351.72919-.66254.96838v1.13343l.6369-1.09424Zm1.76538-1.41382-.91766-1.19269-1.37928.46472.85071,1.1543Zm1.43683.71686-1.073-.36707-1.14575.33777.95868.30371Zm-.73255-1.35986-.90441-.33606.70233.91284,1.03.35229Zm1.134-1.64533-1.57624-.34369L13.472,12.81012l1.26386.46954ZM20,19H19v7h1Zm6-1H25v8h1Zm2,3H27v5h1Zm-6,0H21v5h1Zm2,2H23v3h1Zm6-7V28H15V16Zm-.75.75H15.75v10.5h13.5ZM4.75,21H5V20H4.75V19H5V18H4.75V17H5V16H4.75V15H5V14H4.75V13H5V12H4.75V11H5V10H4.75V9H5V8H4.75V7H5V6H4.75V5.75h13.5v9H19V5H4V6H3V7H4V8H3V9H4v1H3v1H4v1H3v1H4v1H3v1H4v1H3v1H4v1H3v1H4v1H3v1H4v1h9.75v-.75h-9Z" />
    </g>
    <g id="icon_20">
        <path id="_020" data-name="020" d="M10.66669,24.5,9,22.9l.83325-.8.83344.8,2.5-2.4L14,21.30011Zm7.66668-3.95807-1.30511,1.23975L15.71661,20.5,15,21.33362,16.25,22.521,15,23.70837l.66663.79163L17,23.2334,18.33337,24.5,19,23.70837l-1.2323-1.20416L19,21.33362ZM24,22.5a2,2,0,1,1-2-2A2.07061,2.07061,0,0,1,24,22.5Zm-1.00006,0A1,1,0,1,0,22,23.50006.987.987,0,0,0,22.99994,22.5ZM27,5.5v22H6V5.5ZM11,7a.5.5,0,1,0,.5-.5A.5.5,0,0,0,11,7ZM9,7a.5.5,0,1,0,.5-.5A.5.5,0,0,0,9,7ZM7,7a.5.5,0,1,0,.5-.5A.5.5,0,0,0,7,7ZM26.25,8.5H6.75V26.75h19.5ZM18,13h1.5v-.75H24V11.5H19.5V11H18v.5H9v.75h9Zm-4,3h1.5v-.75H24V14.5H15.5V14H14v.5H9v.75h5Zm6,3h1.5v-.75H24V17.5H21.5V17H20v.5H9v.75H20Z" />
    </g>
    <g id="icon_21">
        <path id="_021" data-name="021" d="M29,23.5V6.5H4v17H14v1H11l-1,2H23l-1-2H19v-1ZM4.75,22.75V7.25h23.5v15.5ZM26.97253,9.61853h-.02734l-.0274.00574-.46576.20282-.23139.12176-.17657.10724-.16437.113-.32886.25793-.04565.0318-.00611.003-.01825.00281-.478-.19415-.0578-.0318-.01526-.01166-.04572-.55353-.03045-.19995-.0304-.15069-.067-.24329-.12781-.3855L24.601,8.62744l-.0152-.02319-.0213-.0174-.0213-.0086-.3714-.05811L24.02252,8.5l-.0274.00275-.02429.00885-.0091.00854-.02136.01746-.24054.31878-.16742.24921-.10345.17969-.08838.17969-.18872.46075-.01526.026-.01215.01166-.548.06665-.04261.00293-.01525-.00879-.14307-.20276-.204-.28406-.13092-.15643-.10657-.113L21.7514,9.094l-.277-.24054-.05793-.04626-.02429-.01166-.0274-.0058-.02442.00287-.32879.11884-.16138.06372-.01215.00873-.02124.01739-.0122.02027-.00916.02612-.03955.29846-.0213.33319-.00311.20581.0122.19995.07917.54474.003.029-.006.0174-.26191.19708-.20092.142-.0152.00574-.0152.00586-.25879-.12177-.28924-.1275-.19178-.07245-.20092-.06085-.24665-.05792L18.777,10.514l-.04572-.00293-.03039.00293-.0213.01159-.01215.00574-.18579.22028-.14606.17968-.01227.02027-.006.02606.00305.02612.06092.15357.16742.34479.01825.04064.10052.1767.02741.04645.0852.1275.02741.0376.0852.1189.25879.30712.0274.04059.00306.0058.003.01734-.21619.48687-.0213.03766-.01221.0116-.006.00287-.274.01745-.31353.02893-.204.03192-.207.04346-.28925.08106-.31055.10437-.04565.02038-.01215.00574-.01831.02026-.01214.02027-.07923.46081-.006.058.00305.02606.01215.02313.0274.029.50843.35065.18267.10437.14.06946.59369.23187.02429.01453.00922.01159.0639.50708.00305.06085-.0061.0174-.44452.29846-.16132.12171-.11871.10138-.15222.14489-.19483.2-.05175.058-.04566.05212v.00293l-.05786.06079-.01825.02033-.02435.03772-.00611.02606v.02612l.01215.03467.01221.03485.13391.34772.03357.06952.01513.02032.02137.01746.03955.01147.51147.04932.22833.0058h.00306l.03039.00293.19183-.00873h.01832l.24353-.02325.29834-.04633.11267-.01733h.02124l.01831.00866.33795.44623.003.00873.0061.01739-.0852.17383-.06092.12171-.10351.21447-.07611.18836-.06391.19708-.064.23761-.07916.368-.00605.04926.003.02612.00915.02606.01526.02027.3866.30139.0335.02313.02741.0058h.02429l.02747-.0058.46576-.20282.23138-.1217.17658-.10718.16442-.113.32874-.25793.04565-.03186.00617-.00293.01825-.0058.50836.21155.03656.02032.00915.0116.03345.45788.03046.24048.0426.20282.064.24347.12786.38544.02741.06372.01825.02319.01825.01734.02435.01159.37146.05793.14612.02032.0274-.00287.02436-.0116.0213-.01446.19787-.255.03962-.055.07306-.10724.07916-.1159.0152-.02326.09137-.15643.09436-.17969.04565-.11017.09436-.23181V19.2337l.0426-.09863.02436-.06073.01519-.029.01227-.01166.51447-.06085.07007-.00574.01818.00287.31971.45209.12786.15643.10657.11591.17957.17682.3136.2752.05786.04639.0274.01166.02436.00574.02429-.00287L25.63,20.0885l.16437-.06671.00916-.00568.0213-.01745.01526-.02027.00915-.026.0517-.4812.00916-.252-.00306-.20581-.01825-.19416-.067-.4317-.00305-.04931.00305-.01734.2619-.19421.20087-.14191.01525-.00879.01825-.00287.25574.12171.28925.12744.137.05225V9.62726l-.00305-.003Zm-3.65728,6.71021A1.82874,1.82874,0,1,1,25.144,14.5,1.82876,1.82876,0,0,1,23.31525,16.32874Zm-4.84748,1.496-.0097-.02753-.01935-.02148-.02252-.01844-.3288-.14111-.319-.11664-.07739-.02142h-.00317l-.09351-.0307-.13538-.03064h-.00317l-.0387-.00922-.22241-.03686-.4447-.046-.0387-.00617-.01611-.00915-.19336-.46021-.02258-.0675v-.00611l.00323-.01843.14179-.16254.01934-.02148.02576-.0307.02582-.02765.0354-.04291.06128-.07672.05157-.06134.01288-.01532.10315-.13806.09668-.15033.116-.20557.09991-.19635.13538-.29754.01611-.05213v-.0307l-.00323-.01227-.00971-.02459-.27716-.3313-.058-.06452-.0257-.01831-.029-.0061h-.029l-.35779.07361-.1579.03985-.22558.07056-.17408.05829-.16113.07056-.15149.07367-.3706.2055-.0484.0246-.00641.003-.02259-.003-.46728-.2854-.02258-.01837-.00647-.01837.03546-.46326.00323-.22089-.00647-.17486-.01928-.17481-.04517-.27923-.0741-.34357-.01611-.05524-.01611-.0307-.01935-.01837-.02582-.01538-.44476-.11347-.06446-.01226h-.03222l-.02576.00921-.02582.01837-.28039.30677-.02259.02758-.13214.16572-.00317.003-.01935.02459-.10638.14722-.07733.12579-.01612.02454-.08056.14728-.02582.046-.16437.35583-.029.05835-.01288.01837-.02582.00928-.51245.03369h-.05157l-.01612-.0061-.15143-.23627-.09668-.15027-.01293-.02154-.12891-.17792-.11279-.138-.1225-.12891-.16437-.16259-.28686-.25153-.06769-.05218-.029-.01221-.029-.00617-.029.00306-.4093.15649-.08063.03375-.02252.01837-.01611.0246-.00965.02753-.0484.52154-.0064.23.00964.178.01611.17182.11279.57672.00324.03375-.00324.01849-.29.2392-.15149.12274-.01935.00617-.00641.003-.46094-.181-.21264-.07056L9.466,15.42871,9.28552,15.392l-.22882-.03375-.40936-.04291h-.058l-.03223.0061-.01611.00617-.02259.01538-.261.38958-.03223.05518-.00647.02765.00323.03064.00971.02759.21594.359.16113.23316.1128.141.116.1319.116.11969.34809.30682.029.0307.01288.01831v.00617l-.12891.50317-.01611.046-.01288.01233-.04511.01843-.29333.0644-.09668.02447-.21271.0614-.1676.05829-.1676.07056-.21271.10431-.32874.181-.10956.06445-.02581.02142-.01612.0246L7.5,18.50275l.02576.48163.00647.04608.01287.02447.01612.02149.029.01843.49957.20557.22565.0736.17725.046.17077.03681.58985.0675.03546.00611.01611.01233.19336.46319.01935.05524v.02759l-.29334.33746-.13531.17181L8.989,20.7392l-.09668.15338-.10962.20556-.1676.362-.016.03986h6.61346l.00971-.01837.43188-.34668.01929-.01227h.01294l.30615.11963.12567.05218.06128.01844v.003l.15149.04907.17084.046.18048.03992.23206.03674.12243.01233h.44477l.27075-.408.02252-.03992.00324-.02752-.00324-.02765-.00641-.01538-.17731-.3006-.18689-.273-.10961-.14417-.116-.132-.1161-.12274-.37383-.3313-.02576-.02758-.0097-.01844.1289-.51538.01612-.03991.01611-.01532.05158-.01538.30944-.06751.09668-.02441.21271-.06446.17084-.0614.16754-.07367.20953-.10113.34485-.19336.02259-.01227v-.00305l.05157-.03064.02252-.0246.01612-.02453.00647-.02448-.02259-.42651Zm-5.47192,2.25622a1.67081,1.67081,0,1,1,1.67078-1.67077A1.67081,1.67081,0,0,1,12.99585,20.08093Z" />
    </g>
    <g id="icon_22">
        <path id="_022" data-name="022" d="M28.78778,12.35724l-2.15655-.51148-1.15467.41925,2.11695.62659L19.7381,16.40625a2.48624,2.48624,0,0,0-1.97467-1.3797l-.01361-7.6062,1.228,1.61694V7.82239L17.74756,6h-.61511L15.90222,7.82239v1.2149L17.1347,7.41443l.01362,7.621a2.4865,2.4865,0,0,0-1.36988,4.27039l-5.69226,6.12842.20581-2.045-.814.89539L9.139,26.454l.441.41315,2.103-.51679.814-.89532-1.94238.36285,5.71569-6.15356a2.44015,2.44015,0,0,0,2.23877.11975l5.86347,6.17071-1.99671-.36285.83429.89276L25.36572,27l.45209-.412-.34747-2.16314L24.636,23.532l.21038,2.03363-5.806-6.11023a2.46774,2.46774,0,0,0,.90363-2.47619l7.60333-3.40186-1.00946,1.53839,1.15466-.41925L29,12.92743ZM11.18408,15.843l1.20874.30993,2.12079-.7503.15387-.60761-1.50531-1.68011-1.20874-.31,1.25708,1.57L5.97369,12l-.15387.6076,7.34736,2.4068Zm1.50769,2.1474.15375-.6142L5.50122,14.9483l1.98108-.83673L6.27386,13.7981l-2.12011.75811L4,15.17041,5.50513,16.869l1.20849.31348L5.45569,15.594Z" />
    </g>
    <g id="icon_23">
        <path id="_023" data-name="023" d="M18.02805,8.94444a5.602,5.602,0,0,1,5.48471,4.25309l.10635.43735.4679-.07805a2.32981,2.32981,0,0,1,.38177-.03182,2.36451,2.36451,0,0,1,2.3754,2.34805,2.30384,2.30384,0,0,1-.12476.74831l-.13336.38936.38913.18005A3.678,3.678,0,0,1,29,20.45861a3.60681,3.60681,0,0,1-3.52005,3.597H7.455A3.54112,3.54112,0,0,1,4,20.52323,3.59394,3.59394,0,0,1,6.32114,17.18l.38858-.13307-.06534-.38547a4.73329,4.73329,0,0,1-.06741-.7884,4.79932,4.79932,0,0,1,4.83139-4.75551,4.92821,4.92821,0,0,1,1.52117.2411l.35264.11425.21658-.28661a5.62531,5.62531,0,0,1,4.5293-2.24185M18.08682,8a6.36657,6.36657,0,0,0-5.12614,2.58328A5.5338,5.5338,0,0,0,5.75261,16.75,4.28432,4.28432,0,0,0,3,20.75989,4.22421,4.22421,0,0,0,7.1071,25H25.82533A4.29141,4.29141,0,0,0,30,20.69147a4.37421,4.37421,0,0,0-2.39349-3.90906A2.98394,2.98394,0,0,0,24.77527,12.85a2.89868,2.89868,0,0,0-.48675.04132A6.37906,6.37906,0,0,0,18.08682,8ZM23,16l-4-3v2H16v2h3v2ZM13,17h2V15H13Zm-1,0L8,20l4,3V21h3V19H12Zm4,4h2V19H16Z" />
    </g>
    <g id="icon_24">
        <path id="_024" data-name="024" d="M23.74781,9.2521A10.24992,10.24992,0,1,0,26.75,16.5,10.25,10.25,0,0,0,23.74781,9.2521Zm-13.98993,13.99a9.52858,9.52858,0,0,1-.82853-.94981c.81014-3.42864,1.81013-7.53281,3.42616-8.74492C13.19532,12.08464,13.43908,9.91762,14.956,8.78c.37916,1.13766.97516,3.49435,1.38146,4.632a30.61558,30.61558,0,0,0,6.31142,4.92994c.18967.10838.43339.86685.43339.86685l-.73132.92093-7.80125-.78548a8.49117,8.49117,0,0,0-2.14.13545,5.4845,5.4845,0,0,1,1.19183-1.70658,4.518,4.518,0,0,0-1.32728-.54174,5.133,5.133,0,0,1,.70423-1.00223c-.21671.08122-1.78775.78547-1.95024,1.38146a8.55363,8.55363,0,0,1,1.30014.4334,4.09714,4.09714,0,0,0-1.00221,2.30245,18.95064,18.95064,0,0,1,4.36114-.13542.20487.20487,0,0,0,.10836.02706l.97512.02707,3.09678,5.15245A9.52251,9.52251,0,0,1,9.75788,23.24214ZM16.5,11.81377c.73136-.70427.83976-.81263,1.544-1.48984a34.89759,34.89759,0,0,1-.05413,3.711,9.06371,9.06371,0,0,0-1.219-.92092S16.60838,12.166,16.5,11.81377Zm6.74219,11.42837a9.526,9.526,0,0,1-1.68273,1.33643l-3.27166-4.06964,2.70878.298a6.18947,6.18947,0,0,0,1.59822,0,17.78539,17.78539,0,0,0,1.73362-2.167,46.38126,46.38126,0,0,1-5.63429-4.11731,39.821,39.821,0,0,0-.18958-5.71551c-1.05643,1.05643-1.19188,1.21895-2.24835,2.19409-.46043-1.48984-.67715-2.00451-1.13766-3.49435a11.71208,11.71208,0,0,0-3.19635,5.30928c-1.7405,1.92791-3.00406,5.12554-4.00094,7.84141a9.53385,9.53385,0,1,1,15.32094,2.58466Zm-7.12144-6.47127a5.35941,5.35941,0,0,1,.21676-.70434,2.93923,2.93923,0,0,1,2.22118.81263c-.48752.13542-.54179.16258-1.0293.298A2.30963,2.30963,0,0,0,16.12073,16.77087Z" />
    </g>
</svg>